# xmcd
#
# Track frame offsets:
#	150
#	13900
#	32705
#	50470
#	68205
#	80022
#	93777
#	105120
#	121582
#	136325
#	145975
#	168212
#	182125
#	195688
#	210700
#	220310
#	228587
#	239907
#	258045
#	269300
#	281738
#	291288
#	301970
#	330605
#	343788
#
# Disc length: 4721 seconds
#
# Revision: 1
# Processed by: cddbd v1.5.2PL0 Copyright (c) Steve Scherf et al.
# Submitted via: audiograbber 1.83.01
#
DISCID=76126f19
DTITLE=The Flying Burrito Bros - The Very Best Of
DYEAR=2002
DGENRE=Country
TTITLE0=Christine's Tune (aka Devil In Disguise)
TTITLE1=Sin City
TTITLE2=Do Right Woman
TTITLE3=Dark End Of The Street
TTITLE4=My Uncle
TTITLE5=Wheels
TTITLE6=Juanita
TTITLE7=Hot Burrito #1
TTITLE8=Hot Burrito #2
TTITLE9=Do You Know How It Feels?
TTITLE10=Hippie Boy
TTITLE11=The Train Song
TTITLE12=Lazy Days
TTITLE13=Image Of Me
TTITLE14=High Fashion Queen
TTITLE15=If You Gotta Go
TTITLE16=Man In The Fog
TTITLE17=Farther Along
TTITLE18=Older Guys
TTITLE19=Cody, Cody
TTITLE20=God's Own Singer
TTITLE21=Down In The Churchyard
TTITLE22=Wild Horses
TTITLE23=Six Days On The Road
TTITLE24=Close Up The Honky-Tonks
EXTD=YEAR: 2002 ID3G: 2
EXTT0=
EXTT1=
EXTT2=
EXTT3=
EXTT4=
EXTT5=
EXTT6=
EXTT7=
EXTT8=
EXTT9=
EXTT10=
EXTT11=
EXTT12=
EXTT13=
EXTT14=
EXTT15=
EXTT16=
EXTT17=
EXTT18=
EXTT19=
EXTT20=
EXTT21=
EXTT22=
EXTT23=
EXTT24=
PLAYORDER=
